<svg width="40" height="140" viewBox="0 0 40 140" fill="none" xmlns="http://www.w3.org/2000/svg">
<circle cx="20" cy="20" r="18.5" fill="white" stroke="#1E333F" stroke-width="3"/>
<line x1="20" y1="40" x2="20" y2="140" stroke="#1E333F" stroke-width="2"/>
<path d="M15.3867 20.0078L16.207 12.7812H24.1758V15.1348H18.5215L18.1699 18.1914C18.8405 17.8333 19.5534 17.6543 20.3086 17.6543C21.6628 17.6543 22.724 18.0742 23.4922 18.9141C24.2604 19.7539 24.6445 20.929 24.6445 22.4395C24.6445 23.3574 24.4492 24.181 24.0586 24.9102C23.6745 25.6328 23.1211 26.196 22.3984 26.5996C21.6758 26.9967 20.8229 27.1953 19.8398 27.1953C18.9805 27.1953 18.1829 27.0228 17.4473 26.6777C16.7116 26.3262 16.1289 25.8346 15.6992 25.2031C15.276 24.5716 15.0514 23.8522 15.0254 23.0449H17.8184C17.877 23.6374 18.082 24.0996 18.4336 24.4316C18.7917 24.7572 19.2572 24.9199 19.8301 24.9199C20.4681 24.9199 20.9596 24.6921 21.3047 24.2363C21.6497 23.7741 21.8223 23.123 21.8223 22.2832C21.8223 21.4759 21.6237 20.8574 21.2266 20.4277C20.8294 19.998 20.2663 19.7832 19.5371 19.7832C18.8665 19.7832 18.3229 19.959 17.9062 20.3105L17.6328 20.5645L15.3867 20.0078Z" fill="black"/>
</svg>
