<svg width="40" height="140" viewBox="0 0 40 140" fill="none" xmlns="http://www.w3.org/2000/svg">
<circle cx="20" cy="20" r="18.5" fill="white" stroke="#1E333F" stroke-width="3"/>
<line x1="20" y1="40" x2="20" y2="140" stroke="#1E333F" stroke-width="2"/>
<path d="M22.623 12.6348V14.959H22.3496C21.0736 14.9785 20.0449 15.3105 19.2637 15.9551C18.4889 16.5996 18.0234 17.4948 17.8672 18.6406C18.6224 17.8724 19.5762 17.4883 20.7285 17.4883C21.9655 17.4883 22.9486 17.931 23.6777 18.8164C24.4069 19.7018 24.7715 20.8672 24.7715 22.3125C24.7715 23.237 24.5697 24.0736 24.166 24.8223C23.7689 25.571 23.2025 26.1536 22.4668 26.5703C21.7376 26.987 20.9108 27.1953 19.9863 27.1953C18.4889 27.1953 17.278 26.6745 16.3535 25.6328C15.4355 24.5911 14.9766 23.2012 14.9766 21.4629V20.4473C14.9766 18.9043 15.2663 17.5436 15.8457 16.3652C16.4316 15.1803 17.2682 14.2656 18.3555 13.6211C19.4492 12.9701 20.7155 12.6413 22.1543 12.6348H22.623ZM19.8691 19.7539C19.4134 19.7539 19 19.8743 18.6289 20.1152C18.2578 20.3496 17.9844 20.6621 17.8086 21.0527V21.9121C17.8086 22.8561 17.9941 23.5951 18.3652 24.1289C18.7363 24.6562 19.2572 24.9199 19.9277 24.9199C20.5332 24.9199 21.0215 24.6823 21.3926 24.207C21.7702 23.7253 21.959 23.1035 21.959 22.3418C21.959 21.5671 21.7702 20.9421 21.3926 20.4668C21.015 19.9915 20.5072 19.7539 19.8691 19.7539Z" fill="black"/>
</svg>
