<svg width="40" height="140" viewBox="0 0 40 140" fill="none" xmlns="http://www.w3.org/2000/svg">
<circle cx="20" cy="20" r="18.5" fill="white" stroke="#1E333F" stroke-width="3"/>
<line x1="20" y1="40" x2="20" y2="140" stroke="#1E333F" stroke-width="2"/>
<path d="M17.8379 18.6406H19.3418C20.0579 18.6406 20.5885 18.4616 20.9336 18.1035C21.2786 17.7454 21.4512 17.2702 21.4512 16.6777C21.4512 16.1048 21.2786 15.6589 20.9336 15.3398C20.5951 15.0208 20.1263 14.8613 19.5273 14.8613C18.987 14.8613 18.5345 15.0111 18.1699 15.3105C17.8053 15.6035 17.623 15.9876 17.623 16.4629H14.8008C14.8008 15.7207 14.9993 15.0566 15.3965 14.4707C15.8001 13.8783 16.36 13.416 17.0762 13.084C17.7988 12.752 18.5931 12.5859 19.459 12.5859C20.9629 12.5859 22.1413 12.9473 22.9941 13.6699C23.847 14.3861 24.2734 15.3757 24.2734 16.6387C24.2734 17.2897 24.0749 17.8887 23.6777 18.4355C23.2806 18.9824 22.7598 19.4023 22.1152 19.6953C22.916 19.9818 23.5117 20.4115 23.9023 20.9844C24.2995 21.5573 24.498 22.2344 24.498 23.0156C24.498 24.2786 24.0358 25.291 23.1113 26.0527C22.1934 26.8145 20.9759 27.1953 19.459 27.1953C18.0397 27.1953 16.8776 26.821 15.9727 26.0723C15.0742 25.3236 14.625 24.334 14.625 23.1035H17.4473C17.4473 23.6374 17.6458 24.0736 18.043 24.4121C18.4466 24.7507 18.9414 24.9199 19.5273 24.9199C20.1979 24.9199 20.722 24.7441 21.0996 24.3926C21.4837 24.0345 21.6758 23.5625 21.6758 22.9766C21.6758 21.5573 20.8945 20.8477 19.332 20.8477H17.8379V18.6406Z" fill="black"/>
</svg>
