<svg width="40" height="140" viewBox="0 0 40 140" fill="none" xmlns="http://www.w3.org/2000/svg">
<circle cx="20" cy="20" r="18.5" fill="white" stroke="#1E333F" stroke-width="3"/>
<line x1="20" y1="40" x2="20" y2="140" stroke="#1E333F" stroke-width="2"/>
<path d="M24.7129 27H14.9668V25.0664L19.5664 20.1641C20.1979 19.474 20.6634 18.8717 20.9629 18.3574C21.2689 17.8431 21.4219 17.3548 21.4219 16.8926C21.4219 16.2611 21.2624 15.7663 20.9434 15.4082C20.6243 15.0436 20.1686 14.8613 19.5762 14.8613C18.9382 14.8613 18.4336 15.0827 18.0625 15.5254C17.6979 15.9616 17.5156 16.5378 17.5156 17.2539H14.6836C14.6836 16.388 14.8887 15.597 15.2988 14.8809C15.7155 14.1647 16.3014 13.6048 17.0566 13.2012C17.8118 12.791 18.668 12.5859 19.625 12.5859C21.0898 12.5859 22.2259 12.9375 23.0332 13.6406C23.847 14.3438 24.2539 15.3366 24.2539 16.6191C24.2539 17.3223 24.0716 18.0384 23.707 18.7676C23.3424 19.4967 22.7174 20.3464 21.832 21.3164L18.5996 24.7246H24.7129V27Z" fill="black"/>
</svg>
